<svg xmlns="http://www.w3.org/2000/svg" xmlns:xlink="http://www.w3.org/1999/xlink" version="1.1" x="0px" y="0px" width="100px" height="100px" viewBox="0 0 100 100" enable-background="new 0 0 100 100" xml:space="preserve">
<g id="Captions">
	<rect x="-468" width="185" height="99"/>
	<rect x="-276" y="-36" width="100" height="30"/>
	<text transform="matrix(1 0 0 1 -210 -19.5)" fill="#000000" font-family="'Helvetica'" font-size="2.4">http://thenounproject.com</text>
	<text transform="matrix(1 0 0 1 -268.834 -24.5)"><tspan x="0" y="0" fill="#000000" font-family="'Helvetica-Bold'" font-size="6.1578">The Noun Project</tspan><tspan x="1.12" y="4.8" fill="#000000" font-family="'Helvetica-Bold'" font-size="4">Icon Template</tspan></text>
	<text transform="matrix(1 0 0 1 -454.5 10.5)" fill="#000000" font-family="'Helvetica-Bold'" font-size="6.1578">Reminders</text>
	<line fill="#000000" stroke="#FFFFFF" stroke-miterlimit="10" x1="-268" y1="-14.5" x2="-258" y2="-14.5"/>
	<line fill="#000000" stroke="#FFFFFF" stroke-miterlimit="10" x1="-455" y1="16.5" x2="-438" y2="16.5"/>
	<g>
		<g>
			<g>
				<rect x="-446.802" y="31.318" fill="#000000" width="8.721" height="8.642"/>
				<path fill="#000000" d="M-440.455,42.312h4.747v-4.703h-4.747V42.312z M-435.266,42.749h-5.63V37.17h5.63V42.749      L-435.266,42.749z M-442.221,44.062h8.279v-8.203h-8.279V44.062L-442.221,44.062z M-433.5,44.5h-9.163v-9.079h9.163V44.5      L-433.5,44.5z"/>
				<polygon fill="#000000" points="-442.149,44.133 -442.292,43.991 -434.013,35.787 -433.871,35.929     "/>
			</g>
		</g>
	</g>
	<rect x="-455" y="58" fill="none" width="35" height="32.5"/>
	<text transform="matrix(1 0 0 1 -455 60.1572)"><tspan x="0" y="0" fill="#000000" font-family="'Helvetica-Bold'" font-size="3">Strokes</tspan><tspan x="0" y="5" fill="#000000" font-family="'Helvetica'" font-size="2.4">Try to keep strokes at 4px</tspan><tspan x="0" y="10" fill="#000000" font-family="'Helvetica'" font-size="2.4">Minimum stroke weight is 2px</tspan><tspan x="0" y="14.5" fill="#000000" font-family="'Helvetica'" font-size="2.4">For thicker strokes use even </tspan><tspan x="0" y="17.5" fill="#000000" font-family="'Helvetica'" font-size="2.4">numbers: 6px, 8px etc.</tspan><tspan x="0" y="22" fill="#000000" font-family="'Helvetica-Bold'" font-size="2.4">Remember to expand strokes </tspan><tspan x="0" y="25" fill="#000000" font-family="'Helvetica-Bold'" font-size="2.4">before saving as an SVG </tspan></text>
	<rect x="-412.5" y="58" fill="none" width="35" height="32.5"/>
	<text transform="matrix(1 0 0 1 -412.5 60.1572)"><tspan x="0" y="0" fill="#000000" font-family="'Helvetica-Bold'" font-size="3">Size</tspan><tspan x="0" y="5" fill="#000000" font-family="'Helvetica'" font-size="2.4">Cannot be wider or taller than </tspan><tspan x="0" y="8.5" fill="#000000" font-family="'Helvetica'" font-size="2.4">100px (artboard size)</tspan><tspan x="0" y="13.5" fill="#000000" font-family="'Helvetica'" font-size="2.4">Scale your icon to fill as much of </tspan><tspan x="0" y="16.5" fill="#000000" font-family="'Helvetica'" font-size="2.4">the artboard as possible</tspan></text>
	<rect x="-370" y="58" fill="none" width="35" height="32.5"/>
	<text transform="matrix(1 0 0 1 -370 60.1572)"><tspan x="0" y="0" fill="#000000" font-family="'Helvetica-Bold'" font-size="3">Ungroup</tspan><tspan x="0" y="5" fill="#000000" font-family="'Helvetica'" font-size="2.4">If your design has more than one </tspan><tspan x="0" y="8" fill="#000000" font-family="'Helvetica'" font-size="2.4">shape, make sure to ungroup</tspan></text>
	<rect x="-326" y="58" fill="none" width="35" height="32.5"/>
	<text transform="matrix(1 0 0 1 -326 60.1572)"><tspan x="0" y="0" fill="#000000" font-family="'Helvetica-Bold'" font-size="3">Save as</tspan><tspan x="0" y="5" fill="#000000" font-family="'Helvetica'" font-size="2.4">Save as .SVG and make sure </tspan><tspan x="0" y="8" fill="#000000" font-family="'Helvetica'" font-size="2.4">&#8220;Use Artboards&#8221; is checked</tspan></text>
	<text transform="matrix(1.0074 0 0 1 -401.542 30.5933)" fill="#000000" font-family="'Helvetica'" font-size="2.5731">100px</text>
	<text transform="matrix(1.0074 0 0 1 -317 39)" fill="#000000" font-family="'Helvetica-Bold'" font-size="5.1462">.SVG</text>
	<rect x="-402.514" y="34.815" fill="#000000" width="10.261" height="10.185"/>
	<rect x="-402.477" y="31.766" fill="#000000" width="0.522" height="2.337"/>
	<rect x="-392.812" y="31.766" fill="#000000" width="0.523" height="2.337"/>
	<rect x="-403" y="32.337" fill="#000000" width="11.233" height="0.572"/>
	<g>
		<rect x="-359.805" y="33.844" fill="#000000" width="10.305" height="10.156"/>
		<rect x="-352.809" y="28.707" fill="#000000" width="3.308" height="3.261"/>
	</g>
	<rect x="-454.5" y="22.5" fill="#000000" stroke="#FFFFFF" stroke-miterlimit="10" width="30" height="30"/>
	<rect x="-412.5" y="22.5" fill="#000000" stroke="#FFFFFF" stroke-miterlimit="10" width="30" height="30"/>
	<rect x="-369.5" y="22.5" fill="#000000" stroke="#FFFFFF" stroke-miterlimit="10" width="30" height="30"/>
	<rect x="-325.5" y="22.5" fill="#000000" stroke="#FFFFFF" stroke-miterlimit="10" width="30" height="30"/>
</g>
<g id="Your_Icon">
	<g>
		<path d="M-241.384,51.528c4.111,2.507,8.986,3.344,15.384,3.344s11.545-1.256,15.384-3.342c1.705-0.927,4.28-4.448,6.797-9.002    c10.399-0.473,16.714-6.496,16.857-12.412c0.09-3.687-2.324-8.009-9.133-9.247c0.069-0.708,0.111-1.393,0.111-2.044    c0-3.087,0-11.289-30.017-11.289s-30.017,8.202-30.017,11.29C-256.017,29.476-245.682,48.907-241.384,51.528z M-199.149,20.545    l-0.179,4.458l0,0L-199.149,20.545z M-196.882,26h0.002c3.46,0,5.512,1.996,5.455,4.369c-0.069,2.813-3.322,6.87-9.988,7.956    C-199.516,34.265-197.85,30-196.882,26z M-249.318,18.827c0-2.536,10.439-4.592,23.318-4.592s23.318,2.056,23.318,4.592    s-10.439,4.592-23.318,4.592S-249.318,21.363-249.318,18.827z"/>
		<path d="M-177.191,63.217c-0.486-0.2-1.008-0.19-1.463-0.016l-0.73,0.297l-2.503,1.005c-1.577,0.633-3.438,0.615-5.159-0.098    c-1.707-0.709-2.906-2.082-3.569-3.648c-0.639-1.576-0.77-3.41-0.061-5.119c0.713-1.721,2.017-3.048,3.575-3.717l2.483-1.059    l0.727-0.307c0.442-0.199,0.822-0.557,1.022-1.045c0.405-0.977-0.044-2.093-1.005-2.489l-0.148-0.063    c-2.917-1.014-6.173-0.936-9.26,0.379c-4.48,1.917-7.439,6.021-8.106,10.569l-7.079,2.926L-226,68.095l-17.532-7.264l-7.079-2.926    c-0.667-4.548-3.626-8.652-8.106-10.569c-3.087-1.314-6.343-1.393-9.26-0.379l-0.148,0.063c-0.961,0.396-1.41,1.513-1.005,2.489    c0.2,0.488,0.58,0.846,1.022,1.045l0.727,0.307l2.483,1.059c1.559,0.669,2.862,1.996,3.575,3.717    c0.709,1.709,0.578,3.543-0.061,5.119c-0.663,1.566-1.862,2.939-3.569,3.648c-1.721,0.713-3.582,0.73-5.159,0.098l-2.503-1.005    l-0.73-0.297c-0.455-0.175-0.977-0.185-1.463,0.016c-0.977,0.403-1.447,1.511-1.051,2.472l0.063,0.148    c1.345,2.78,3.702,5.023,6.815,6.279c4.522,1.812,9.52,1.012,13.215-1.735l7.066,2.919l5.067,2.101l-9.925,4.112    c-1.581,0.658-2.883,1.978-3.589,3.68c-1.413,3.414,0.2,7.315,3.615,8.728c1.702,0.707,3.558,0.718,5.141,0.065l22.39-9.278    l22.39,9.278c1.583,0.652,3.438,0.642,5.141-0.065c3.415-1.412,5.028-5.313,3.615-8.728c-0.706-1.702-2.008-3.021-3.589-3.68    l-9.925-4.112l5.067-2.101l7.066-2.919c3.695,2.747,8.692,3.548,13.215,1.735c3.113-1.256,5.471-3.499,6.815-6.279l0.063-0.148    C-175.744,64.728-176.215,63.62-177.191,63.217z M-248.146,86.404c-0.504,1.217-1.901,1.794-3.118,1.291    c-1.216-0.504-1.794-1.901-1.29-3.118c0.506-1.217,1.901-1.795,3.117-1.291C-248.22,83.79-247.642,85.188-248.146,86.404z     M-202.563,83.286c1.216-0.504,2.611,0.074,3.117,1.291c0.504,1.217-0.074,2.614-1.29,3.118c-1.217,0.503-2.614-0.074-3.118-1.291    S-203.78,83.79-202.563,83.286z"/>
	</g>
	<path d="M-73.521,47.434c-1.031,1.034-1.879,0.685-1.879-0.776V26.626c0-1.46-0.841-1.81-1.872-0.779l-21.593,21.587   c-1.031,1.034-2.003,0.69-2.157-0.761l-4.746-44.03C-105.926,1.188-107.25,0-108.708,0h-9.403c-1.464,0-2.72,1.194-2.797,2.655   l-5.031,94.691c-0.08,1.46,1.055,2.654,2.513,2.654h70.716c1.458,0,2.654-1.197,2.654-2.657V26.626c0-1.46-0.844-1.81-1.875-0.779   L-73.521,47.434z M-75.4,84.671c0,1.46-1.19,2.654-2.651,2.654h-20.031c-1.464,0-2.654-1.194-2.654-2.654V64.639   c0-1.46,1.19-2.654,2.654-2.654h20.031c1.461,0,2.651,1.194,2.651,2.654V84.671z"/>
	<path d="M99.471,43.688l-14.556-8.454l14.556-8.456c0.327-0.189,0.529-0.54,0.529-0.918s-0.202-0.726-0.529-0.915L66.67,6.01   c-0.327-0.189-0.733-0.192-1.061,0.002L50,15.077L34.394,6.012C34.063,5.818,33.66,5.82,33.33,6.01L0.529,24.945   C0.202,25.134,0,25.481,0,25.86s0.202,0.729,0.529,0.918l14.556,8.456L0.529,43.688C0.202,43.877,0,44.228,0,44.606   c0,0.378,0.202,0.729,0.529,0.917l15.606,9.007V74.14c0,0.379,0.202,0.729,0.529,0.918l32.801,18.935   c0.022,0.013,0.051,0.018,0.076,0.03c0.031,0.016,0.06,0.026,0.087,0.036c0.12,0.044,0.24,0.074,0.366,0.074   c0.125,0,0.245-0.03,0.362-0.074c0.031-0.01,0.06-0.021,0.087-0.036c0.028-0.01,0.057-0.018,0.08-0.03l32.801-18.935   c0.327-0.189,0.528-0.539,0.528-0.918V54.537l15.617-9.014c0.327-0.189,0.526-0.54,0.529-0.917   C100,44.228,99.798,43.877,99.471,43.688z M66.144,8.152l30.679,17.713l-14.024,8.147L52.116,16.299L66.144,8.152z M3.178,25.865   L33.859,8.152l14.021,8.145L17.196,34.01L3.178,25.865z M3.175,44.601l14.021-8.142l30.685,17.71l-14.021,8.146L3.175,44.601z    M48.937,91.236l-30.682-17.71V55.754l15.075,8.702c0.166,0.095,0.348,0.144,0.529,0.144c0.187,0,0.368-0.049,0.534-0.146   l14.551-8.452L48.937,91.236z M51.056,52.048c0,0.585-0.476,1.058-1.061,1.058c-0.586,0-1.062-0.473-1.062-1.058V18.421   c0-0.588,0.476-1.061,1.062-1.061c0.585,0,1.061,0.473,1.061,1.061V52.048z M81.734,73.526l-30.679,17.71l0.011-35.227   l14.543,8.444c0.327,0.191,0.733,0.191,1.061,0.002l15.064-8.696V73.526z M66.144,62.314l-14.024-8.146l30.679-17.715l14.024,8.147   L66.144,62.314z"/>
	<g>
		<path d="M187.998,44.917c2.422-5.869,12.434-30.137,13.147-31.879C201.086,5.838,195.21,0,187.998,0s-13.087,5.838-13.146,13.038    C175.566,14.779,185.577,39.048,187.998,44.917z"/>
		<path d="M220.812,20.79c-2.485-2.485-5.788-3.854-9.299-3.854c-3.474,0-6.744,1.338-9.216,3.772L189.049,52.55l30.178-12.557    l1.66-0.692c2.435-2.474,3.774-5.743,3.774-9.216C224.663,26.575,223.295,23.273,220.812,20.79z"/>
		<path d="M173.702,20.712c-2.475-2.436-5.741-3.776-9.218-3.776c-3.512,0-6.812,1.368-9.295,3.85    c-5.099,5.103-5.123,13.386-0.077,18.516l8.968,3.731l22.868,9.517L173.702,20.712z"/>
		<path d="M154.745,40.453c-7.25,0-13.146,5.898-13.146,13.147c0,7.248,5.896,13.146,13.146,13.146c0.046,0,0.093,0.006,0.135,0.017    L186.525,53.6l-31.652-13.172C154.827,40.444,154.785,40.453,154.745,40.453z"/>
		<path d="M220.81,86.408c5.092-5.092,5.123-13.379,0.082-18.51l-31.84-13.249l13.243,31.836c2.477,2.435,5.746,3.775,9.22,3.775    C215.026,90.261,218.326,88.892,220.81,86.408z"/>
		<path d="M221.121,66.768c0.042-0.015,0.087-0.021,0.131-0.021c7.249,0,13.149-5.898,13.149-13.146    c0-7.249-5.9-13.147-13.149-13.147c-0.049,0-0.095-0.006-0.142-0.018L189.471,53.6L221.121,66.768z"/>
		<path d="M187.998,100c7.217,0,13.116-5.872,13.147-13.088c0-0.062,0.011-0.12,0.028-0.176l-13.173-31.663l-13.176,31.673    c0.021,0.052,0.031,0.108,0.031,0.166C174.886,94.128,180.781,100,187.998,100z"/>
		<path d="M186.948,54.648l-31.825,13.238c-5.057,5.126-5.032,13.423,0.066,18.521c2.483,2.483,5.783,3.853,9.295,3.853    c3.477,0,6.748-1.342,9.225-3.779L186.948,54.648z"/>
	</g>
	<g>
		<g>
			<path d="M373.827,39.966L326,15.883l-47.827,24.083c-1.948,0.978-2.73,3.353-1.75,5.301c0.983,1.949,3.355,2.73,5.299,1.75     l2.008-1.01V80.83c0,1.814,1.478,3.287,3.291,3.287h11.513h54.932h11.515c1.813,0,3.289-1.473,3.289-3.287V46.007l2.007,1.01     c0.566,0.287,1.174,0.422,1.772,0.422c1.443,0,2.833-0.795,3.529-2.172C376.558,43.319,375.775,40.944,373.827,39.966z      M354.124,58.35h-56.248v-8.114c0-0.355,0.302-0.657,0.657-0.657h54.932c0.357,0,0.659,0.302,0.659,0.657V58.35z M297.876,60.982     h56.248v9.1h-56.248V60.982z M298.533,81.486c-0.355,0-0.657-0.303-0.657-0.656v-8.117h56.248v8.117     c0,0.354-0.302,0.656-0.659,0.656H298.533z M365.636,80.83c0,0.354-0.301,0.656-0.656,0.656h-8.289     c0.044-0.213,0.063-0.432,0.063-0.656V50.236c0-1.816-1.473-3.289-3.289-3.289h-54.932c-1.814,0-3.287,1.473-3.287,3.289V80.83     c0,0.225,0.02,0.443,0.063,0.656h-8.289c-0.355,0-0.656-0.303-0.656-0.656V44.682L326,24.719l39.636,19.963V80.83z"/>
			<path d="M316.956,34.832v5.264c0,1.812,1.471,3.284,3.287,3.284h11.514c1.814,0,3.287-1.473,3.287-3.284v-5.264     c0-1.814-1.473-3.292-3.287-3.292h-11.514C318.427,31.54,316.956,33.018,316.956,34.832z M320.243,34.172h4.443v1.973h-5.103     v-1.313C319.584,34.476,319.885,34.172,320.243,34.172z M319.584,40.096v-1.321h5.103v1.976h-4.443     C319.885,40.75,319.584,40.451,319.584,40.096z M331.757,40.75h-4.443v-1.976h5.101v1.321     C332.414,40.451,332.112,40.75,331.757,40.75z M332.414,34.832v1.313h-5.101v-1.973h4.443     C332.112,34.172,332.414,34.476,332.414,34.832z"/>
		</g>
	</g>
</g>
</svg>