<svg xmlns="http://www.w3.org/2000/svg" xmlns:xlink="http://www.w3.org/1999/xlink" version="1.1" id="Layer_1" x="0px" y="0px" width="100px" height="100px" viewBox="0 0 100 100" enable-background="new 0 0 100 100" xml:space="preserve">
<path fill="#000000" d="M81.03,39.332l-17.548,17.18c-1.599-5.099-0.588-11.689,0-18.039c-0.035-3.558,3.525-2.491,5.522-3.436  c-3.352-1.096-5.524-3.076-6.259-6.136c-0.577,2.997-1.806,5.712-4.664,7.731c0.133-3.742-1.304-7.258,0.859-11.29l2.822-0.859  c-7.987-6.46-7.475-15.186-11.044-22.825c-1.387,7.799,0.186,15.808-5.277,23.315l3.191,1.596c0.917,3.679,2.716,6.789,1.349,9.816  c-3.843-1.252-5.669-3.716-7.976-5.89c-0.147,2.509,0.68,5.247-4.785,6.503c3.025,0.614,5.829,1.406,7.239,3.313  c2.398,7.1,1.1,13.83,0.369,20.617c-9.282-6.251-15.825-14.822-20.861-24.666c-3.823,12.949-2.558,27.265-13.989,38.164  c3.478-1.99,6.954-2.549,10.431-1.596c2.252,2.777,3.774,7.013,5.399,11.045c-3.082-1.564-2.629,2.055-10.062-5.891  c-0.893,3.427-3.484,6.391-7.977,8.835c4.013-0.37,7.519-0.464,7.977,1.104l3.19,10.186l13.149-0.107l-1.375-20.126h10.124  L39.463,97.94l0,0l39.849-0.319c-1.441-7.854-0.281-15.708,0.49-23.563c3.214-3.504,7.549-5.327,13.377-4.908  C79.551,64.532,85.08,49.271,81.03,39.332z M27.173,70.629L25.668,61.9c0,0,1.66-4.81,3.721-4.956  c1.708-0.121,3.631,3.634,3.631,3.634l1.035,9.14L27.173,70.629z M51.523,19.048h3.298l1.735,6.247h-5.555L51.523,19.048z   M49.788,41.262h3.125l-0.868,12.495h-3.297L49.788,41.262z M56.469,87.771h-8.936l0.781-15.358h8.155V87.771z M55.862,53.408  l-0.175-11.106l3.124-1.735l0.521,12.668L55.862,53.408z M70.18,89.159h-8.33l-0.348-14.925h9.458L70.18,89.159z M76.281,65.901  l-5.435-0.585l1.387-8.84c0,0,0.854-3.008,2.069-3.005c1.559,0.001,2.639,3.86,2.639,3.86L76.281,65.901z"/>
</svg>