<svg xmlns="http://www.w3.org/2000/svg" xmlns:xlink="http://www.w3.org/1999/xlink" version="1.1" id="Layer_1" x="0px" y="0px" width="100px" height="100px" viewBox="0 0 100 100" enable-background="new 0 0 100 100" xml:space="preserve">
<path fill-rule="evenodd" clip-rule="evenodd" fill="#000000" d="M58.574,26.19c6.006,3.107,10.11,9.377,10.11,16.604v38.021  C68.685,91.135,60.318,99.5,50,99.5c-10.319,0-18.684-8.365-18.684-18.685V42.794c0-7.228,4.104-13.497,10.109-16.604L29.337,14.101  V0.5H50h20.663v13.601L58.574,26.19L58.574,26.19z M59.061,57.045c-3.271-1.514-7.548-0.091-9.061,3.174  c-1.514-3.265-5.791-4.689-9.061-3.174c-3.483,1.616-5.148,5.743-2.398,10.611C40.495,71.12,43.958,73.73,50,78.409  c6.042-4.679,9.505-7.291,11.458-10.753C64.209,62.788,62.544,58.661,59.061,57.045z"/>
</svg>